<svg width="98" height="97" xmlns="http://www.w3.org/2000/svg" xmlns:xlink="http://www.w3.org/1999/xlink" xml:space="preserve" overflow="hidden"><g transform="translate(-210 -301)"><g><g><g><g><path d="M273.618 355.72C277.926 357.266 282.003 359.028 285.378 361.789 286.995 363.05 287.956 364.973 287.995 367.023L289.751 381.417C289.893 382.505 289.414 383.581 288.512 384.204 286.792 385.316 284.942 386.213 283.004 386.876L283.004 388.985C285.338 388.236 287.565 387.186 289.628 385.863 291.154 384.822 291.968 383.014 291.737 381.182L289.994 366.93C289.93 364.306 288.695 361.847 286.628 360.229 283.001 357.261 278.693 355.412 274.163 353.793L269.241 351.773C268.489 351.467 267.998 350.735 268 349.923L268 346.975C271.774 344.152 273.998 339.716 274.002 335.002L274.002 332.104C274.52 332.317 275.073 332.433 275.633 332.445 276.185 332.445 276.633 331.997 276.633 331.445 276.633 331.337 276.616 331.231 276.582 331.129L275.569 328.089C275.127 326.701 274.773 325.287 274.51 323.855 273.524 319.02 270.344 314.919 265.906 312.761 265.194 312.39 264.334 312.454 263.684 312.925L263.383 312.477C262.973 311.844 262.325 311.403 261.586 311.255 253.845 309.8 246.381 314.714 243.837 322.498 243.402 323.855 243.179 325.272 243.177 326.698L243.168 328.192C243.161 329.591 242.873 330.973 242.32 332.258L240.458 336.606C240.24 337.114 240.475 337.702 240.983 337.919 241.107 337.973 241.242 338 241.377 338 241.455 338 241.533 337.991 241.608 337.973 241.775 337.933 242.727 337.703 244.185 337.289 244.786 341.15 246.871 344.623 249.995 346.97L249.995 349.923C249.997 350.735 249.506 351.467 248.754 351.773L243.799 353.807C239.283 355.422 234.991 357.267 231.388 360.215 229.312 361.835 228.071 364.298 228.005 366.93L226.263 381.189C226.034 383.02 226.849 384.824 228.374 385.864 230.439 387.187 232.668 388.237 235.003 388.987L235.003 386.878C233.063 386.215 231.212 385.317 229.489 384.204 228.588 383.583 228.11 382.51 228.249 381.424L229.996 367.124 230.003 367.024C230.044 364.967 231.012 363.039 232.637 361.777 235.998 359.027 240.07 357.268 244.377 355.723L246.457 354.993C249.162 356.859 253.89 358.003 259 358.003 264.108 358.003 268.836 356.859 271.541 354.993ZM244.159 333.046C244.817 331.517 245.16 329.87 245.169 328.205L245.178 326.711C245.178 325.492 245.367 324.28 245.739 323.119 247.716 317.066 252.999 313 258.884 313 259.667 313.001 260.448 313.075 261.217 313.221 261.428 313.274 261.61 313.408 261.724 313.594L262.616 314.918C262.924 315.376 263.546 315.497 264.004 315.189 264.019 315.179 264.034 315.168 264.049 315.157L264.854 314.548C264.886 314.521 264.93 314.513 264.97 314.528 268.886 316.389 271.695 319.989 272.547 324.24L272.548 324.24C272.827 325.756 273.202 327.253 273.671 328.721L274.081 329.95C271.965 328.752 269.474 325.636 268.141 323.51 267.967 323.233 267.67 323.059 267.344 323.042 267.018 323.023 266.703 323.167 266.504 323.427 261.501 329.858 248.143 334.095 243.104 335.507ZM246.129 336.713C252.01 334.905 262.103 331.181 267.196 325.695 268.532 327.674 270.151 329.447 272.002 330.955L272.002 335.002C272.007 342.178 266.193 347.999 259.017 348.003 252.497 348.007 246.983 343.177 246.129 336.713ZM259.001 356.002C255.452 356.09 251.928 355.394 248.679 353.965L249.513 353.623C251.017 353.01 251.998 351.547 251.995 349.923L251.995 348.245C256.369 350.583 261.621 350.589 266 348.26L266 349.923C265.996 351.547 266.978 353.01 268.481 353.623L269.318 353.967C266.07 355.395 262.548 356.09 259.001 356.002Z" fill="#000000" fill-rule="nonzero" fill-opacity="1"/><path d="M281.004 367.54C280.998 365.579 279.405 363.995 277.444 364 277.441 364 277.437 364 277.434 364L240.544 364C238.59 364.002 237.006 365.586 237.004 367.54L237.004 390.19 230.004 390.19 230.004 392.464C230.017 394.413 231.595 395.989 233.544 396L284.468 396C286.417 395.987 287.993 394.409 288.004 392.46L288.004 390.19 281.004 390.19ZM286.004 392.19 286.004 392.456C285.999 393.305 285.313 393.993 284.464 394L233.548 394C232.699 393.995 232.011 393.309 232.004 392.46L232.004 392.19 239.004 392.19 239.004 367.54C239.005 366.69 239.694 366.001 240.544 366L277.464 366C278.314 366.001 279.003 366.69 279.004 367.54L279.004 392.19Z" fill="#000000" fill-rule="nonzero" fill-opacity="1"/><path d="M252.416 374.03 246.806 379.64 252.416 385.25 253.826 383.84 249.636 379.64 253.826 375.44 252.416 374.03Z" fill="#000000" fill-rule="nonzero" fill-opacity="1"/><path d="M264.146 375.44 268.336 379.64 264.146 383.84 265.556 385.25 271.166 379.64 265.556 374.03 264.146 375.44Z" fill="#000000" fill-rule="nonzero" fill-opacity="1"/><path d="M255.706 385.18 257.556 385.95 262.236 374.63 260.396 373.86 255.706 385.18Z" fill="#000000" fill-rule="nonzero" fill-opacity="1"/></g></g></g></g></g></svg>